# xmcd
#
# Track frame offsets:
# 983
# 12940
# 26095
# 37967
# 44340
# 60039
# 64895
# 77644
# 96658
# 110982
# 131011
# 141115
# 144821
# 166015
# 175026
# 196666
# 209856
#
# Disc length: 3130 seconds
#
#
# Revision: 0
# Processed by: cddbd v1.5.2PL0 Copyright (c) Steve Scherf et al.
# Submitted via: FreeRIP 2.951 
#
DISCID=ec0c2d11
DTITLE=The Moonshine Playboys - Man On First
DYEAR=1900
DGENRE=Bluegrass
TTITLE0=Every Breath You Take
TTITLE1=Diggy Liggy Lo
TTITLE2=Anarchy In The U.K.
TTITLE3=Voodoo Chile
TTITLE4=Stayin, Alive
TTITLE5=Rattlesnake In The Henhouse
TTITLE6=I Wanna Be Dedated
TTITLE7=Another Brick In The Wall Part II
TTITLE8=All Right Now
TTITLE9=La Danse De Mardi Gras
TTITLE10=Come As You Are
TTITLE11=Firth of Fifth
TTITLE12=Voodoo Chile (Slight Return)
TTITLE13=Help!
TTITLE14=Do Re Me
TTITLE15=I Saw The Light
TTITLE16=Smoke On The Water
EXTD=By Jan Paredis
EXTT0=
EXTT1=
EXTT2=
EXTT3=
EXTT4=
EXTT5=
EXTT6=
EXTT7=
EXTT8=
EXTT9=
EXTT10=
EXTT11=
EXTT12=
EXTT13=
EXTT14=
EXTT15=
EXTT16=Additional
PLAYORDER=
